{"asset":{"version":"2.0","generator":"Blockbench 4.12.4 glTF exporter"},"scenes":[{"nodes":[1],"name":"blockbench_export"}],"scene":0,"nodes":[{"translation":[0,0.06875,0],"name":"tube","mesh":0},{"children":[0]}],"bufferViews":[{"buffer":0,"byteOffset":0,"byteLength":7488,"target":34962,"byteStride":12},{"buffer":0,"byteOffset":7488,"byteLength":7488,"target":34962,"byteStride":12},{"buffer":0,"byteOffset":14976,"byteLength":4992,"target":34962,"byteStride":8},{"buffer":0,"byteOffset":19968,"byteLength":1728,"target":34963}],"buffers":[{"byteLength":21696,"uri":"data:application/octet-stream;base64,"}],"accessors":[{"bufferView":0,"componentType":5126,"count":624,"max":[0.625,0.05937499925494194,0.625],"min":[-0.625,-0.06562499701976776,-0.625],"type":"VEC3"},{"bufferView":1,"componentType":5126,"count":624,"max":[1,1,1],"min":[-1,-1,-1],"type":"VEC3"},{"bufferView":2,"componentType":5126,"count":624,"max":[0.7097476720809937,0.5703125],"min":[0,0],"type":"VEC2"},{"bufferView":3,"componentType":5123,"count":864,"max":[623],"min":[0],"type":"SCALAR"}],"materials":[{"pbrMetallicRoughness":{"metallicFactor":0,"roughnessFactor":1,"baseColorTexture":{"index":0}},"alphaMode":"MASK","alphaCutoff":0.05,"doubleSided":true}],"textures":[{"sampler":0,"source":0,"name":"texture"}],"samplers":[{"magFilter":9728,"minFilter":9728,"wrapS":33071,"wrapT":33071}],"images":[{"mimeType":"image/png","uri":"data:image/png;base64,"}],"meshes":[{"primitives":[{"mode":4,"attributes":{"POSITION":0,"NORMAL":1,"TEXCOORD_0":2},"indices":3,"material":0}]}]}