{"asset":{"version":"2.0","generator":"Blockbench 4.12.4 glTF exporter"},"scenes":[{"nodes":[3],"name":"blockbench_export"}],"scene":0,"nodes":[{"translation":[0,2.8125,0],"name":"head_anchor","mesh":0},{"translation":[-0.375,2.875,-0.4375],"name":"nice_hat","mesh":1},{"translation":[0,0,0.0625],"name":"head_cosmetic","children":[0,1]},{"children":[2]}],"bufferViews":[{"buffer":0,"byteOffset":0,"byteLength":288,"target":34962,"byteStride":12},{"buffer":0,"byteOffset":288,"byteLength":288,"target":34962,"byteStride":12},{"buffer":0,"byteOffset":576,"byteLength":192,"target":34962,"byteStride":8},{"buffer":0,"byteOffset":768,"byteLength":72,"target":34963},{"buffer":0,"byteOffset":840,"byteLength":1440,"target":34962,"byteStride":12},{"buffer":0,"byteOffset":2280,"byteLength":1440,"target":34962,"byteStride":12},{"buffer":0,"byteOffset":3720,"byteLength":960,"target":34962,"byteStride":8},{"buffer":0,"byteOffset":4680,"byteLength":360,"target":34963},{"buffer":0,"byteOffset":5040,"byteLength":8},{"buffer":0,"byteOffset":5048,"byteLength":24}],"buffers":[{"byteLength":5072,"uri":"data:application/octet-stream;base64,"}],"accessors":[{"bufferView":0,"componentType":5126,"count":24,"max":[0.0625,0.125,0.0625],"min":[-0.0625,0,-0.0625],"type":"VEC3"},{"bufferView":1,"componentType":5126,"count":24,"max":[1,1,1],"min":[-1,-1,-1],"type":"VEC3"},{"bufferView":2,"componentType":5126,"count":24,"max":[0.4990234375,0.2490234375],"min":[0.0009765625,0.0009765625],"type":"VEC2"},{"bufferView":3,"componentType":5123,"count":36,"max":[23],"min":[0],"type":"SCALAR"},{"bufferView":4,"componentType":5126,"count":120,"max":[0.9375,0.125,0.9375],"min":[-0.1875,-0.625,-0.1875],"type":"VEC3"},{"bufferView":5,"componentType":5126,"count":120,"max":[1,1,1],"min":[-1,-1,-1],"type":"VEC3"},{"bufferView":6,"componentType":5126,"count":120,"max":[3.6875,3.6875],"min":[0,0],"type":"VEC2"},{"bufferView":7,"componentType":5123,"count":180,"max":[119],"min":[0],"type":"SCALAR"},{"bufferView":8,"componentType":5126,"count":2,"max":[1.3333333730697632],"min":[0],"type":"SCALAR"},{"bufferView":9,"componentType":5126,"count":2,"max":[1,2.5,-0.015625],"min":[1,0.5,-0.015625],"type":"VEC3"}],"materials":[{"pbrMetallicRoughness":{"metallicFactor":0,"roughnessFactor":1},"alphaMode":"MASK","alphaCutoff":0.05,"doubleSided":true},{"pbrMetallicRoughness":{"metallicFactor":0,"roughnessFactor":1},"alphaMode":"MASK","alphaCutoff":0.05,"doubleSided":true}],"meshes":[{"primitives":[{"mode":4,"attributes":{"POSITION":0,"NORMAL":1,"TEXCOORD_0":2},"indices":3,"material":0}]},{"primitives":[{"mode":4,"attributes":{"POSITION":4,"NORMAL":5,"TEXCOORD_0":6},"indices":7,"material":1}]}],"animations":[{"name":"climbing","samplers":[{"input":8,"output":9,"interpolation":"LINEAR"}],"channels":[{"sampler":0,"target":{"path":"translation"}}]}]}