{"asset":{"version":"2.0","generator":"Blockbench 4.12.4 glTF exporter"},"scenes":[{"nodes":[3],"name":"blockbench_export"}],"scene":0,"nodes":[{"translation":[0,2.625,0],"name":"viking_helm","mesh":0},{"name":"viking","children":[0]},{"translation":[0,0,0.0625],"name":"head_cosmetic","children":[1]},{"children":[2]}],"bufferViews":[{"buffer":0,"byteOffset":0,"byteLength":2304,"target":34962,"byteStride":12},{"buffer":0,"byteOffset":2304,"byteLength":2304,"target":34962,"byteStride":12},{"buffer":0,"byteOffset":4608,"byteLength":1536,"target":34962,"byteStride":8},{"buffer":0,"byteOffset":6144,"byteLength":144,"target":34963},{"buffer":0,"byteOffset":6288,"byteLength":360,"target":34963},{"buffer":0,"byteOffset":6648,"byteLength":8},{"buffer":0,"byteOffset":6656,"byteLength":24}],"buffers":[{"byteLength":6680,"uri":"data:application/octet-stream;base64,"}],"accessors":[{"bufferView":0,"componentType":5126,"count":192,"max":[0.5625,0.875,0.5],"min":[-0.5625,-0.375,-0.625],"type":"VEC3"},{"bufferView":1,"componentType":5126,"count":192,"max":[1,1,1],"min":[-1,-1,-1],"type":"VEC3"},{"bufferView":2,"componentType":5126,"count":192,"max":[0.921875,0.921875],"min":[0,0],"type":"VEC2"},{"bufferView":3,"componentType":5123,"count":72,"max":[71],"min":[0],"type":"SCALAR"},{"bufferView":4,"componentType":5123,"count":180,"max":[191],"min":[72],"type":"SCALAR"},{"bufferView":5,"componentType":5126,"count":2,"max":[1.3333333730697632],"min":[0],"type":"SCALAR"},{"bufferView":6,"componentType":5126,"count":2,"max":[1,2.5,-0.015625],"min":[1,0.5,-0.015625],"type":"VEC3"}],"materials":[{"pbrMetallicRoughness":{"metallicFactor":0,"roughnessFactor":1},"alphaMode":"MASK","alphaCutoff":0.05,"doubleSided":true},{"pbrMetallicRoughness":{"metallicFactor":0,"roughnessFactor":1,"baseColorTexture":{"index":0}},"alphaMode":"MASK","alphaCutoff":0.05,"doubleSided":true}],"textures":[{"sampler":0,"source":0,"name":"texture"}],"samplers":[{"magFilter":9728,"minFilter":9728,"wrapS":33071,"wrapT":33071}],"images":[{"mimeType":"image/png","uri":"data:image/png;base64,"}],"meshes":[{"primitives":[{"mode":4,"attributes":{"POSITION":0,"NORMAL":1,"TEXCOORD_0":2},"indices":3,"material":0},{"mode":4,"attributes":{"POSITION":0,"NORMAL":1,"TEXCOORD_0":2},"indices":4,"material":1}]}],"animations":[{"name":"climbing","samplers":[{"input":5,"output":6,"interpolation":"LINEAR"}],"channels":[{"sampler":0,"target":{"path":"translation"}}]}]}